Coordinates
version=1
nRows=10
nColumns=63
inDegrees=yes

Units are S.I. units (second, meters, Newtons, ...)
If the header above contains a line with 'inDegrees', this indicates whether rotational values are in degrees (yes) or radians (no).

endheader
time	pelvis_tilt	pelvis_list	pelvis_rotation	pelvis_tx	pelvis_ty	pelvis_tz	hip_flexion_r	hip_adduction_r	hip_rotation_r	knee_angle_r	knee_angle_r_beta	ankle_angle_r	subtalar_angle_r	mtp_angle_r	hip_flexion_l	hip_adduction_l	hip_rotation_l	knee_angle_l	knee_angle_l_beta	ankle_angle_l	subtalar_angle_l	mtp_angle_l	L5_S1_Flex_Ext	L5_S1_Lat_Bending	L5_S1_axial_rotation	L4_L5_Flex_Ext	L4_L5_Lat_Bending	L4_L5_axial_rotation	L3_L4_Flex_Ext	L3_L4_Lat_Bending	L3_L4_axial_rotation	L2_L3_Flex_Ext	L2_L3_Lat_Bending	L2_L3_axial_rotation	L1_L2_Flex_Ext	L1_L2_Lat_Bending	L1_L2_axial_rotation	L1_T12_Flex_Ext	L1_T12_Lat_Bending	L1_T12_axial_rotation	Abs_r3	Abs_r2	Abs_r1	Abs_t1	Abs_t2	neck_flexion	neck_bending	neck_rotation	arm_flex_r	arm_add_r	arm_rot_r	elbow_flex_r	pro_sup_r	wrist_flex_r	wrist_dev_r	arm_flex_l	arm_add_l	arm_rot_l	elbow_flex_l	pro_sup_l	wrist_flex_l	wrist_dev_l
      0.03333333	      0.52868581	      7.71811408	    -30.51100416	     -1.75400476	      0.85391423	      0.34912943	     -5.33684358	     -7.73639812	     23.23331473	     12.76131012	      0.22272688	     15.92950916	    -17.45367899	      0.00000000	     21.63907131	    -10.39419796	    -30.96072979	     31.60988087	      0.55169650	     -0.46640177	    -18.77866732	      0.00000000	      0.00412766	     -0.94647833	      3.93676201	      0.00766548	     -1.25881617	      4.18280964	      0.00678134	     -2.30126740	      4.18280964	      0.00471751	     -2.30126740	      3.44466676	      0.00383295	     -1.93005860	      3.19861913	      0.00235855	     -1.46609493	      2.95257151	      0.02948348	    -10.70675211	     21.89508927	      0.00000000	      0.00000000	     -0.00000000	      0.00000000	     -0.00000000	     -5.14702949	      3.52871125	     -9.33003303	     27.29629068	     24.57929186	      0.00000000	      6.59836074	    -10.48024772	      2.41482438	    -24.86429449	     29.94267695	     28.93453145	      0.00000000	      6.59836074
      0.06666667	      0.50690993	      7.66685516	    -30.42299441	     -1.75396771	      0.85389291	      0.34905464	     -5.38523712	     -7.66941488	     23.24412420	     12.72131997	      0.22202892	     15.85873269	    -17.57452368	      0.00000000	     21.69983751	    -10.44669260	    -30.83726101	     31.70392342	      0.55333785	     -0.43605261	    -18.76362281	      0.00000000	      0.00406177	     -0.93975941	      3.92127142	      0.00754311	     -1.24988001	      4.16635088	      0.00667308	     -2.28493102	      4.16635088	      0.00464220	     -2.28493102	      3.43111249	      0.00377176	     -1.91635738	      3.18603303	      0.00232089	     -1.45568732	      2.94095357	      0.02901281	    -10.63074636	     21.80893526	      0.00000000	      0.00000000	     -0.00000000	      0.00000000	     -0.00000000	     -5.12866157	      3.54246397	     -9.71561962	     27.21089076	     26.54254569	      0.00000000	      6.14157786	    -10.44759975	      2.45622280	    -25.11614332	     29.83862609	     29.83059112	      0.00000000	      6.14157786
      0.10000000	      0.51967473	      7.70835775	    -30.46469233	     -1.75395392	      0.85389554	      0.34909269	     -5.36653469	     -7.72321299	     23.24166063	     12.72206206	      0.22204187	     15.86413421	    -17.55714183	      0.00000000	     21.67368129	    -10.40554188	    -30.90810045	     31.66186743	      0.55260383	     -0.43309204	    -18.76416698	      0.00000000	      0.00458823	     -0.94566867	      3.92454684	      0.00852080	     -1.25773933	      4.16983102	      0.00753800	     -2.29929881	      4.16983102	      0.00524389	     -2.29929881	      3.43397849	      0.00426063	     -1.92840755	      3.18869431	      0.00262171	     -1.46484077	      2.94341013	      0.03277326	    -10.69759313	     21.82715217	      0.00000000	      0.00000000	     -0.00000000	      0.00000000	     -0.00000000	     -5.12727452	      3.51614618	     -9.59968526	     27.16987923	     27.93258542	      0.00000000	      5.77572642	    -10.50212586	      2.51878269	    -25.54060826	     30.04263637	     30.72116667	      0.00000000	      5.77572642
      0.13333333	      0.52921545	      7.70885761	    -30.52917569	     -1.75403154	      0.85391653	      0.34914941	     -5.34576334	     -7.72986671	     23.27395764	     12.74526112	      0.22244677	     15.92727060	    -17.46642303	      0.00000000	     21.63401126	    -10.41075728	    -30.98393433	     31.61694943	      0.55181987	     -0.45381950	    -18.77111382	      0.00000000	      0.00356426	     -0.94608547	      3.93873259	      0.00661918	     -1.25829367	      4.18490338	      0.00585572	     -2.30031220	      4.18490338	      0.00407359	     -2.30031220	      3.44639102	      0.00330977	     -1.92925748	      3.20022023	      0.00203662	     -1.46548639	      2.95404945	      0.02545914	    -10.70230802	     21.90604907	      0.00000000	      0.00000000	     -0.00000000	      0.00000000	     -0.00000000	     -5.13706978	      3.55907152	     -9.80454137	     27.22422537	     27.59982346	      0.00000000	      5.75412858	    -10.47579372	      2.44842195	    -25.19491082	     29.92721619	     30.48191862	      0.00000000	      5.75412858
      0.16666667	      0.53295764	      7.74205148	    -30.44571412	     -1.75388673	      0.85390943	      0.34911378	     -5.41649277	     -7.78647005	     23.10654004	     12.61658833	      0.22020101	     15.93469700	    -17.34542233	      0.00000000	     21.63071213	    -10.32394552	    -30.89529045	     31.54017945	      0.55047998	     -0.51075895	    -18.80899268	      0.00000000	      0.00500694	     -0.95016607	      3.92212752	      0.00929838	     -1.26372087	      4.16726049	      0.00822590	     -2.31023378	      4.16726049	      0.00572243	     -2.31023378	      3.43186158	      0.00464944	     -1.93757865	      3.18672861	      0.00286096	     -1.47180724	      2.94159564	      0.03576406	    -10.74846861	     21.81369661	      0.00000000	      0.00000000	     -0.00000000	      0.00000000	     -0.00000000	     -5.19660812	      3.59831727	    -10.03438546	     27.34886818	     28.62714777	      0.00000000	      5.62661022	    -10.55809770	      2.48312416	    -25.47914264	     30.15248143	     31.39736629	      0.00000000	      5.62661022
      0.20000000	      0.52782726	      7.70558487	    -30.54103276	     -1.75403165	      0.85390088	      0.34915393	     -5.33606800	     -7.72450803	     23.28286085	     12.76184714	      0.22273625	     15.91000814	    -17.48598038	      0.00000000	     21.63413608	    -10.42631687	    -30.99820460	     31.63517052	      0.55213789	     -0.44289599	    -18.76751064	      0.00000000	      0.00375779	     -0.94520651	      3.94198571	      0.00697859	     -1.25712466	      4.18835981	      0.00617367	     -2.29817511	      4.18835981	      0.00429478	     -2.29817511	      3.44923749	      0.00348948	     -1.92746511	      3.20286339	      0.00214720	     -1.46412488	      2.95648928	      0.02684152	    -10.69236507	     21.92414191	      0.00000000	      0.00000000	     -0.00000000	      0.00000000	     -0.00000000	     -5.13815451	      3.57423220	    -10.03879417	     27.21768729	     28.57516145	      0.00000000	      5.52811304	    -10.45213479	      2.50784572	    -25.56381680	     29.90552915	     31.24831560	      0.00000000	      5.52811304
      0.23333333	      0.53695936	      7.72896872	    -30.51493537	     -1.75398407	      0.85390000	      0.34914720	     -5.36665383	     -7.76501861	     23.19836754	     12.70711740	      0.22178104	     15.96586745	    -17.37221049	      0.00000000	     21.63174453	    -10.37043174	    -30.92932186	     31.59662374	      0.55146512	     -0.48456500	    -18.80198410	      0.00000000	      0.00402154	     -0.94831615	      3.93564862	      0.00746840	     -1.26126047	      4.18162666	      0.00660699	     -2.30573588	      4.18162666	      0.00459622	     -2.30573588	      3.44369254	      0.00373440	     -1.93380628	      3.19771451	      0.00229791	     -1.46894171	      2.95173647	      0.02872545	    -10.72754190	     21.88889694	      0.00000000	      0.00000000	     -0.00000000	      0.00000000	     -0.00000000	     -5.16549083	      3.61611201	    -10.23017614	     27.28646539	     28.95419640	      0.00000000	      5.47171254	    -10.49277579	      2.48650141	    -25.51513084	     29.99205893	     31.60403261	      0.00000000	      5.47171254
      0.26666667	      0.52544192	      7.68914317	    -30.49600165	     -1.75391953	      0.85390719	      0.34911196	     -5.42486067	     -7.75124767	     23.06754367	     12.60886444	      0.22006620	     15.98728634	    -17.19462808	      0.00000000	     21.64375383	    -10.42342378	    -30.94028276	     31.65086830	      0.55241186	     -0.42658718	    -18.78446222	      0.00000000	      0.00404474	     -0.94302673	      3.93473834	      0.00751148	     -1.25422555	      4.18065948	      0.00664510	     -2.29287519	      4.18065948	      0.00462273	     -2.29287519	      3.44289604	      0.00375594	     -1.92302010	      3.19697490	      0.00231116	     -1.46074840	      2.95105375	      0.02889116	    -10.66770695	     21.88383421	      0.00000000	      0.00000000	     -0.00000000	      0.00000000	     -0.00000000	     -5.18208437	      3.61548840	    -10.38356851	     27.29721853	     29.17421369	      0.00000000	      5.43859994	    -10.50137454	      2.49421901	    -25.48300878	     29.98153225	     31.80096688	      0.00000000	      5.43859994
      0.30000000	      0.53372260	      7.71912915	    -30.56115362	     -1.75403344	      0.85390658	      0.34917605	     -5.32485223	     -7.74230115	     23.28547265	     12.77392644	      0.22294707	     15.93596963	    -17.46429916	      0.00000000	     21.61348318	    -10.40673200	    -31.01446824	     31.59641202	      0.55146142	     -0.44513149	    -18.76316227	      0.00000000	      0.00408405	     -0.94679288	      3.94612383	      0.00758449	     -1.25923453	      4.19275657	      0.00670969	     -2.30203220	      4.19275657	      0.00466766	     -2.30203220	      3.45285835	      0.00379245	     -1.93070004	      3.20622561	      0.00233363	     -1.46658217	      2.95959287	      0.02917196	    -10.71031040	     21.94715692	      0.00000000	      0.00000000	     -0.00000000	      0.00000000	     -0.00000000	     -5.15155818	      3.62319126	    -10.35577166	     27.24423083	     29.24373875	      0.00000000	      5.39484915	    -10.46293746	      2.48624507	    -25.54136519	     29.91577466	     31.91596113	      0.00000000	      5.39484915
      0.33333333	      0.51958350	      7.71131676	    -30.45253724	     -1.75397887	      0.85389871	      0.34910657	     -5.36444569	     -7.72362777	     23.16699880	     12.72430843	      0.22208108	     15.88837472	    -17.49880200	      0.00000000	     21.66951521	    -10.38279794	    -30.85839866	     31.62228001	      0.55191290	     -0.47248601	    -18.78215845	      0.00000000	      0.00456758	     -0.94553984	      3.92493550	      0.00848244	     -1.25756798	      4.17024396	      0.00750407	     -2.29898556	      4.17024396	      0.00522028	     -2.29898556	      3.43431856	      0.00424145	     -1.92814483	      3.18901009	      0.00260991	     -1.46464121	      2.94370162	      0.03262574	    -10.69613574	     21.82931374	      0.00000000	      0.00000000	     -0.00000000	      0.00000000	     -0.00000000	     -5.16078637	      3.66995637	    -10.61267132	     27.25389662	     29.80422342	      0.00000000	      5.34318376	    -10.47383663	      2.46868105	    -25.52303552	     29.91472083	     32.40200443	      0.00000000	      5.34318376
